<svg xmlns="http://www.w3.org/2000/svg" width="500" height="500" viewBox="0 0 375 375">
  <defs>
    <clipPath id="a">
      <path d="M0 0h118v101H0z"/>
    </clipPath>
    <clipPath id="b">
      <path d="M0 0h219v102H0z"/>
    </clipPath>
    <clipPath id="c">
      <path d="M0 0h96v215H0z"/>
    </clipPath>
  </defs>
  <path fill="#fff" d="M-37.5-37.5h450v450h-450z"/>
  <path fill="#ff5700" d="M-37.5-37.5h450v450h-450z"/>
  <g fill="#fff" clip-path="url(#a)" transform="translate(116 108)">
    <path d="M33.843 68.81q0 .958-.078 1.72a17 17 0 0 0-.078 1.78q-.002 1.049.031 1.845.047.796.047 1.828 0 .72-.516 1.922-.517 1.188-2.594 1.187-.797 0-1.484-.047-.674-.033-1.547-.031h-1.906c-.961 0-1.824-.023-2.594-.078a40 40 0 0 0-2.594-.078q-.797 0-1.484.047c-.45.023-.965.03-1.547.03H8.968c-.367.056-.711.087-1.031.11q-.487.047-1.11.047c-.48 0-1.148-.21-2-.64q-1.281-.64-1.28-2.704c0-1.062.038-2.015.124-2.859q.124-1.278.125-2.797 0-1.435-.047-2.547a84 84 0 0 1-.031-2.562c0-.688.035-1.305.11-1.86a13 13 0 0 0 .124-1.89q0-1.032-.078-1.828a18 18 0 0 1-.078-1.828q-.002-2 .078-3.547.077-1.56.078-3.563 0-1.827-.078-3.578a75 75 0 0 1-.078-3.516 50 50 0 0 1 .031-4.421q.124-1.95.125-4.422 0-1.748-.078-3.11a51 51 0 0 1-.078-3.031q-.001-3.498.719-4.734c.476-.82 1.617-1.235 3.422-1.235 1.062 0 2.015.055 2.86.157q1.277.157 2.796.156.717.002 1.469-.031a24 24 0 0 1 1.484-.047q1.922.001 3.469.125 1.558.11 3.469.109c.582 0 1.097-.023 1.546-.078q.688-.076 1.485-.078h1.594q.637.002 1.187-.031.561-.048 1.281-.047c1.22 0 1.946.351 2.188 1.047.238.687.36 1.242.36 1.656q-.002 1.05-.126 2.047a18 18 0 0 0-.11 2.03q-.001 1.033.032 2.47c.031.96-.152 1.78-.547 2.468q-.596 1.032-2.594 1.032h-.875q-.719 0-1.328.047c-.398.023-.828.03-1.297.03q-.972.002-1.734-.109-.75-.124-1.781-.125-3.268.002-3.906 1-.643 1.001-.641 3.063-.002 4.158 2.797 4.156c.426 0 .82-.023 1.187-.078a7.3 7.3 0 0 1 1.203-.094h.157q.873 0 1.593.094c.477.055.985.078 1.516.078q.715 0 1.313-.047a16 16 0 0 1 1.234-.047q1.669 0 2.312.61.638.596.72 1.39.076.798.077 1.36 0 .956-.047 1.672c-.023.48-.03 1.039-.03 1.672 0 .585.007 1.117.03 1.593q.047.72.047 1.594 0 1.519-.64 2.234-.628.722-1.39.875-.75.158-1.313.157-1.83.001-3.313-.157a32 32 0 0 0-3.297-.156q-2.155.002-3 .719-.83.721-.953 1.719a14 14 0 0 0-.125 1.859v.969q-.002.314.031 1.156.047.832.141 1.234c.582 1.118 1.219 1.688 1.906 1.72q1.03.034 3.266.187c.75.054 1.398.12 1.953.203q.843.11 1.875.11.951 0 1.703-.11a10 10 0 0 1 1.64-.125q.639 0 1.798.515 1.154.516 1.234 2.438M68.125 62.358q-.001 5.25-.968 8.203-.954 2.953-3.907 5.344a15.7 15.7 0 0 1-2.75 1.797q-1.471.75-2.75 1.156-1.19.311-2.984.547-1.8.246-3.594.328a72 72 0 0 1-2.984.078q-.72 0-2.203-.078a30 30 0 0 1-3.188-.36 23 23 0 0 1-3.187-.75c-.98-.32-1.684-.75-2.11-1.28q-.549-.716-.547-2-.002-1.343.079-2.376.076-1.043.078-2.328-.002-1.03-.078-1.781a17 17 0 0 1-.079-1.797q0-.405.11-1.36.123-.95.797-1.75.684-.795 2.359-.718 1.108.082 1.578.328.48.236 1.125.625.153.081.235.203.092.111.25.281.31.158.515.39.2.236.516.407.795.47 1.906.64 1.124.158 1.922.157 4.39 0 4.625-2.64.153-1.904-1.516-3.532a104 104 0 0 0-3.187-3 55 55 0 0 1-1.828-1.906 28 28 0 0 0-1.922-1.922 48 48 0 0 0-1.36-1.234 23 23 0 0 1-2.062-2.11q-2.474-3.029-3-5.547-.516-2.514-.516-5.53 0-9.015 4.219-12.954 4.23-3.951 12.844-3.953 2.638 0 5.187.078 2.544.082 4.219.797 1.67.72 1.672 2.625 0 1.284-.078 2.328c-.055.688-.078 1.48-.078 2.375v.328c0 .531.007 1.012.03 1.438q.048.644.048 1.515c0 .262-.055.657-.156 1.188q-.158.797-.766 1.484-.598.674-2.11.672a6.9 6.9 0 0 1-2-.312c-.687-.22-1.109-.352-1.265-.407a24 24 0 0 0-1.313-.312q-.75-.17-1.953-.172-.234 0-1.078.094-.83.08-1.625.672-.797.597-.797 2.109 0 1.283.703 2.39.404.645 2.547 2.641a268 268 0 0 1 4.469 4.219q.89.799 1.688 1.516.796.721 1.593 1.671c1.907 2.125 3.149 4.028 3.735 5.704q.89 2.5.89 5.78M98 33.967q0 .486-.328 1.64c-.21.774-.921 1.157-2.14 1.157-.375 0-.727-.008-1.047-.031a11 11 0 0 0-1.11-.047q-1.75.001-2.39.922c-.43.605-.64 1.703-.64 3.297 0 1.336.038 2.53.124 3.593.082 1.063.125 2.29.125 3.672q0 2.472-.078 4.39-.08 1.91-.078 4.376-.001 2.238.078 3.984.077 1.752.078 3.985 0 1.284-.047 2.515a88 88 0 0 0-.03 2.5c0 .7.007 1.34.03 1.922.032.586.07 1.246.125 1.985q.076.645.157 1.171c.05.344.078.727.078 1.141q-.002 1.283-.594 1.844a2.9 2.9 0 0 1-1.312.719q-.72.157-1.125.156-.72.002-1.282-.031c-.367-.032-.789-.07-1.265-.125a20 20 0 0 0-1.797-.094h-1.797c-.531 0-1.04.031-1.516.094q-.703.08-1.593.078c-.844 0-1.524-.211-2.032-.641q-.75-.638-.75-2.625 0-1.998.188-3.516.201-1.512.203-3.5-.001-1.84-.125-3.359a46 46 0 0 1-.11-3.344q0-2.155.204-3.906a35 35 0 0 0 .203-3.906q-.001-1.593-.125-2.828a51 51 0 0 1-.203-2.75c-.055-1.645 0-3.172.156-4.578q.247-2.122.172-3.75-.083-1.639-1.125-2.516c-.156-.207-.305-.328-.438-.36q-.204-.044-.28-.124-.394-.233-1-.266a13 13 0 0 0-.985-.047 8 8 0 0 0-.89.047 9 9 0 0 1-.782.031c-1.063 0-1.781-.273-2.156-.828q-.563-.843-.563-1.562-.001-1.513.078-2.704.077-1.2.078-2.718 0-1.032-.078-1.828a18 18 0 0 1-.078-1.844q-.002-1.512.64-2.11.639-.592 2.157-.593 1.34 0 2.453.078 1.125.08 2.484.078 2.075.001 4.11-.11a66 66 0 0 1 4.015-.124h.891q1.668 0 3.016.078a53 53 0 0 0 3.11.078q1.123.002 1.952-.078.845-.077 1.875-.078 2.31 0 2.703 1.39c.27.93.407 1.922.407 2.985q0 1.205-.047 2.125a54 54 0 0 0-.032 2.03q-.002.8.032 1.438.046.626.047 1.422m0 0"/>
  </g>
  <g fill="#fff" clip-path="url(#b)" transform="translate(116 169)">
    <path d="M34.091 70.002q0 .955-.078 1.718a17 17 0 0 0-.078 1.782q-.002 1.048.031 1.843.047.797.047 1.828 0 .721-.516 1.922-.517 1.189-2.593 1.188-.799 0-1.485-.047-.674-.033-1.547-.031h-1.906q-1.44.001-2.594-.078a40 40 0 0 0-2.593-.079q-.799 0-1.485.047c-.449.024-.965.032-1.547.032h-8.53c-.368.054-.712.086-1.032.109q-.487.047-1.11.047-.721.002-2-.64-1.281-.641-1.28-2.704c0-1.062.038-2.016.124-2.86q.124-1.276.125-2.796 0-1.435-.047-2.547a84 84 0 0 1-.03-2.563c0-.687.034-1.304.108-1.859a13 13 0 0 0 .125-1.89q0-1.031-.078-1.829a18 18 0 0 1-.078-1.828q-.002-1.998.078-3.547.077-1.558.078-3.562 0-1.827-.078-3.578a75 75 0 0 1-.078-3.516 50 50 0 0 1 .031-4.422q.124-1.95.125-4.422 0-1.748-.078-3.11a51 51 0 0 1-.078-3.03q-.001-3.498.719-4.735.715-1.232 3.422-1.234c1.062 0 2.015.055 2.86.156q1.276.157 2.796.156c.477 0 .969-.007 1.469-.03a24 24 0 0 1 1.484-.048q1.922.001 3.469.125 1.558.111 3.469.11.873.002 1.547-.078.687-.078 1.484-.079h1.594c.425 0 .82-.007 1.187-.03q.562-.048 1.281-.048c1.22 0 1.946.352 2.188 1.047q.358 1.033.36 1.656-.002 1.05-.126 2.047a18 18 0 0 0-.109 2.032q-.002 1.032.031 2.468.046 1.44-.547 2.47-.596 1.03-2.593 1.03h-.875q-.72 0-1.329.047c-.398.024-.828.031-1.296.031q-.973.001-1.735-.109-.75-.124-1.781-.125-3.269.002-3.906 1c-.43.668-.64 1.688-.64 3.063 0 2.773.929 4.156 2.796 4.156q.638.002 1.187-.078a7.3 7.3 0 0 1 1.204-.094h.156q.873 0 1.594.094c.476.054.984.078 1.515.078q.715 0 1.313-.047a16 16 0 0 1 1.234-.047q1.669 0 2.313.61.637.595.718 1.39.077.796.078 1.36 0 .956-.046 1.671c-.024.48-.032 1.04-.032 1.672q-.002.879.032 1.594.045.72.046 1.594 0 1.518-.64 2.234-.628.722-1.39.875-.75.157-1.313.156-1.83.002-3.313-.156a32 32 0 0 0-3.297-.156q-2.155.002-3 .719-.83.721-.953 1.718a14 14 0 0 0-.125 1.86v.968q-.002.315.031 1.157.048.83.141 1.234.874 1.674 1.906 1.719c.688.023 1.774.086 3.266.187.75.055 1.398.121 1.953.203q.845.111 1.875.11.951.001 1.703-.11a10 10 0 0 1 1.64-.125q.639 0 1.798.516 1.154.516 1.234 2.438M65.971 33.33q0 1.517-.312 2.718-.317 1.189-2.625 1.188-.563.002-1.078-.031a12 12 0 0 0-1.078-.047h-2.235q-.797.002-1.484-.031-.675-.047-1.547-.047h-.156q-1.442.001-1.922.64-.47.626-.469 1.422v1.688q0 .627-.047 1.156-.033.517-.031 1.156c0 .844.223 1.446.672 1.797q.686.517 1.437.594c.508.055.817.078.922.078q.638.002 1.235-.031.59-.046 1.234.03.467 0 .828.048.358.033.844.031.482-.075.953-.11.482-.046.953-.046c1.063.055 1.754.37 2.078.953.32.586.485 1.09.485 1.516 0 .43-.028.812-.079 1.156q-.08.517-.078 1.156v1.516q0 2.238-.047 3.797c-.03 1.03-.273 1.828-.718 2.39-.45.555-1.34.828-2.672.828q-1.285.002-2.281-.156a13.5 13.5 0 0 0-2.266-.172q-1.519.001-2.234.64-.705.644-.875 1.485-.158.832-.157 1.313v3.906q-.002 1.423.032 2.547.046 1.112.046 2.547c-.054.43-.093.812-.125 1.156-.023.344-.03.73-.03 1.156 0 .688.05 1.29.155 1.797q.155.75.157 1.719v.234q-.002.394-.157 1.156-.157.75-.75 1.36-.597.595-2.03.594-1.283.002-2.36-.079a35 35 0 0 0-2.422-.078q-1.126.002-2.047.078-.907.08-2.031.079-1.91 0-2.39-1.032-.47-1.044-.47-1.765c0-1.22.036-2.332.11-3.344a43 43 0 0 0 .125-3.422q.074-3.514-.078-6.266a76 76 0 0 1-.078-6.171q-.002-2.562.156-4.625c.101-1.383.156-2.899.156-4.547q-.001-2.466-.125-4.375a77 77 0 0 1-.11-4.39q-.002-2.076.079-3.782.076-1.719.078-3.875 0-1.202-.078-2.188a27 27 0 0 1-.078-2.203q0-2.701 1.078-3.453c.719-.508 1.582-.766 2.594-.766h2.625c1.437 0 2.738-.023 3.906-.078a90 90 0 0 1 3.906-.078q1.107.002 2.063.078c.644.055 1.363.078 2.156.078 1.176 0 2.238-.007 3.187-.03q1.436-.048 3.188-.048.481 0 1.39.235c.614.156.922.773.922 1.843q0 .47-.047.829a9 9 0 0 0-.03.843v1.438c0 .793.007 1.508.03 2.14q.047.956.047 2.157M107.035 78.298c0 .844-.336 1.336-1 1.47q-1.003.203-1.156.202h-.313c-.7 0-1.305-.023-1.812-.078q-.75-.094-1.782-.094h-2.125q-.908 0-2.015.094c-.43 0-.828.028-1.203.078a8 8 0 0 1-1.188.078q-1.922.001-2.437-1.234-.516-1.232-1.157-2.594a17.4 17.4 0 0 0-1.203-2.515 33 33 0 0 1-1.265-2.422 44 44 0 0 1-.688-1.719q-.27-.763-.75-1.719a51 51 0 0 0-.89-1.672c-.262-.476-.602-.718-1.016-.718q-.892 0-.969.843c-.055.555-.078.938-.078 1.157q-.002 1.189.031 2.156.047.955.047 2.062 0 .88-.047 1.594-.033.72-.031 1.594c0 .531.023 1.039.078 1.516q.076.72.078 1.593-.001 1.285-.64 1.72-.627.438-1.266.437-1.284 0-2.281-.11a19 19 0 0 0-2.344-.125c-1.012 0-1.93.055-2.75.156q-1.237.158-2.75.157-1.285 0-1.953-.797c-.45-.531-.672-1.195-.672-2 0-.582.023-1.113.078-1.594q.075-.716.156-1.516.075-1.499.11-2.734.046-1.248.047-2.766a227 227 0 0 0-.204-5.406q-.11-2.403-.109-5.422-.001-3.029.11-5.547.123-2.512.124-5.546 0-1.982-.078-3.532a69 69 0 0 1-.078-3.562q-.001-2.06.078-3.781.077-1.718.078-3.782-.001-1.278-.125-2.28a13 13 0 0 1-.03-2.267q0-1.2.75-2.625.76-1.436 3.468-1.437 1.278 0 2.234.078c.633.055 1.38.078 2.235.078a60 60 0 0 0 5.453-.078 79 79 0 0 1 5.469-.172q2.308.002 5.015.453 2.718.441 5.219 1.953c1.676 1 3.129 2.54 4.36 4.61q.467.972.718 1.687.153.47.469 1.11c.219.43.43.984.64 1.672q.31.955.47 2.75.167 1.8.25 3.593.076 1.801.077 2.75-.001.564-.125 2.828-.11 2.267-1 5.22-.879 2.954-3.093 5.655-.33.487-.688.844l-.75.75a2.8 2.8 0 0 1-.61.485c-.179.105-.374.293-.593.562a1.4 1.4 0 0 0-.203.313q-.11.234-.11.562 0 .563.797 2.156a89 89 0 0 0 1.672 3.188q.874 1.594 1.11 2.234c.27.531.5 1.024.687 1.469q.28.674.672 1.547a28 28 0 0 0 1.281 2.437q.638 1.08 1.188 2.438.075.235.203.594c.082.242.125.546.125.921M91.254 42.58q-.001-1.032-.36-2.39a5.4 5.4 0 0 0-1.281-2.345q-.924-.998-2.594-1h-.312q-.973.16-1.516.547-.645.564-.89 1.156-.235.598-.235.766c0 .055-.027.422-.078 1.11a55 55 0 0 0-.125 2.359c-.024.875-.047 1.656-.078 2.344a57 57 0 0 0-.031 1.125c0 1 .289 1.902.875 2.703q.873 1.205 2.625 1.203c.593 0 1.085-.078 1.484-.235q.59-.246.906-.562 1.044-.89 1.328-2.672.282-1.793.282-4.11M141.142 70.002q0 .955-.078 1.718a17 17 0 0 0-.078 1.782c0 .699.007 1.312.03 1.843q.048.797.048 1.828 0 .721-.516 1.922-.517 1.189-2.594 1.188-.797 0-1.484-.047-.674-.033-1.547-.031h-1.906q-1.44.001-2.594-.078a40 40 0 0 0-2.594-.079q-.797 0-1.484.047c-.45.024-.965.032-1.547.032h-8.531c-.367.054-.711.086-1.031.109q-.488.047-1.11.047-.721.002-2-.64-1.281-.641-1.28-2.704c0-1.062.038-2.016.124-2.86q.124-1.276.125-2.796 0-1.435-.047-2.547a84 84 0 0 1-.031-2.563c0-.687.035-1.304.11-1.859a13 13 0 0 0 .124-1.89q0-1.031-.078-1.829a18 18 0 0 1-.078-1.828c0-1.332.023-2.515.078-3.547q.077-1.558.078-3.562 0-1.827-.078-3.578a75 75 0 0 1-.078-3.516 50 50 0 0 1 .031-4.422q.124-1.95.125-4.422 0-1.748-.078-3.11a51 51 0 0 1-.078-3.03q-.001-3.498.719-4.735.714-1.232 3.422-1.234c1.062 0 2.015.055 2.86.156q1.277.157 2.796.156c.476 0 .969-.007 1.469-.03a24 24 0 0 1 1.484-.048q1.922.001 3.469.125 1.558.111 3.469.11.873.002 1.546-.078.687-.078 1.485-.079h1.594c.425 0 .82-.007 1.187-.03q.561-.048 1.281-.048c1.22 0 1.946.352 2.188 1.047q.358 1.033.36 1.656-.002 1.05-.126 2.047a18 18 0 0 0-.11 2.032q-.001 1.032.032 2.468.046 1.44-.547 2.47-.596 1.03-2.594 1.03h-.875q-.719 0-1.328.047c-.398.024-.828.031-1.297.031q-.972.001-1.734-.109-.75-.124-1.781-.125-3.269.002-3.906 1-.643 1.001-.641 3.063-.002 4.158 2.797 4.156.638.002 1.187-.078a7.3 7.3 0 0 1 1.203-.094h.157q.873 0 1.593.094c.477.054.985.078 1.516.078q.715 0 1.313-.047a16 16 0 0 1 1.234-.047q1.669 0 2.312.61.637.595.72 1.39.076.796.077 1.36 0 .956-.047 1.671c-.023.48-.03 1.04-.03 1.672 0 .586.007 1.117.03 1.594q.047.72.047 1.594-.001 1.518-.64 2.234-.628.722-1.39.875-.75.157-1.313.156-1.83.002-3.313-.156a32 32 0 0 0-3.297-.156q-2.156.002-3 .719-.83.721-.953 1.718a14 14 0 0 0-.125 1.86v.968q-.002.315.031 1.157.047.83.14 1.234.876 1.674 1.907 1.719c.688.023 1.774.086 3.266.187.75.055 1.398.121 1.953.203q.843.111 1.875.11.951.001 1.703-.11a10 10 0 0 1 1.64-.125q.638 0 1.798.516 1.154.516 1.234 2.438M175.428 63.548q-.001 5.25-.968 8.204-.954 2.953-3.907 5.343a15.7 15.7 0 0 1-2.75 1.797q-1.471.751-2.75 1.156-1.19.312-2.984.547-1.8.246-3.594.328a72 72 0 0 1-2.984.079q-.72-.001-2.203-.079a30 30 0 0 1-3.188-.359 23 23 0 0 1-3.187-.75c-.98-.32-1.684-.75-2.11-1.281-.367-.477-.546-1.145-.546-2 0-.895.023-1.688.078-2.375q.077-1.044.078-2.328-.001-1.032-.078-1.782a17 17 0 0 1-.078-1.796q-.001-.405.109-1.36c.082-.633.348-1.219.797-1.75q.684-.796 2.36-.719 1.107.083 1.577.329c.32.156.696.367 1.125.625q.153.08.235.203.092.112.25.28.31.158.515.392.2.235.516.406.795.47 1.906.64 1.124.158 1.922.157 4.39 0 4.625-2.64.154-1.904-1.516-3.532a104 104 0 0 0-3.187-3 55 55 0 0 1-1.828-1.906 28 28 0 0 0-1.922-1.922 48 48 0 0 0-1.36-1.235 23 23 0 0 1-2.062-2.11q-2.472-3.027-3-5.546-.516-2.514-.516-5.531 0-9.014 4.22-12.953 4.23-3.951 12.843-3.953 2.638 0 5.187.078 2.543.081 4.22.797 1.67.72 1.671 2.625 0 1.283-.078 2.328c-.055.687-.078 1.48-.078 2.375v.328q-.002.798.031 1.437.047.644.047 1.516c0 .262-.055.656-.156 1.187q-.158.799-.766 1.485-.597.673-2.11.672a6.9 6.9 0 0 1-2-.313c-.687-.219-1.109-.351-1.265-.406a24 24 0 0 0-1.312-.313q-.751-.17-1.954-.171-.234 0-1.078.093c-.554.055-1.093.278-1.625.672q-.797.598-.797 2.11 0 1.283.704 2.39.404.644 2.546 2.64a268 268 0 0 1 4.47 4.22c.593.53 1.155 1.039 1.687 1.515.53.48 1.062 1.04 1.593 1.672 1.907 2.125 3.149 4.027 3.735 5.703q.89 2.501.89 5.781M215.998 76.783q0 1.987-.797 2.703-.798.72-1.922.719-1.032.001-1.828-.078a20 20 0 0 0-1.907-.079q-1.44.001-2.64.125c-.793.07-1.696.11-2.703.11-.856 0-1.47-.195-1.844-.594q-.55-.591-.672-1.312c-.086-.477-.125-.829-.125-1.047q-.001-.951.125-1.703.124-.762.125-1.641 0-.639-.047-1.078-.033-.436-.031-1-.001-2.311.11-4.14c.081-1.22.124-2.571.124-4.063q0-2.39-.61-3.39-.597-.999-1.593-1.188a11.5 11.5 0 0 0-2.265-.204q-1.033 0-1.594.235c-.375.156-.696.449-.953.875q-.331.329-.532 1.531-.188 1.19-.265 2.39c-.055.794-.078 1.321-.078 1.579 0 .805.023 1.605.078 2.406q.077 1.189.078 2.453 0 1.285-.047 2.281-.033 1.002-.031 2.344-.002.798.031 1.438c.031.43.047.906.047 1.437q0 1.519-.844 2-.831.47-1.469.469a19 19 0 0 1-2.28-.125 22 22 0 0 0-2.266-.11q-.799 0-1.391.047c-.399.024-.86.055-1.39.11a4.5 4.5 0 0 0-.891.078q-.394.077-.875.078-1.425-.001-2.11-.625-.673-.64-.843-1.39-.158-.763-.157-1.25 0-1.594.203-2.907c.133-.875.204-1.867.204-2.984v-.25c0-1.219.007-2.317.03-3.297q.048-1.482.048-3.234-.001-2.626-.125-4.735c-.075-1.414-.11-3-.11-4.75q-.001-2.155.157-3.906a46 46 0 0 0 .156-3.984q-.001-1.201-.078-2.157a95 95 0 0 1-.157-2.156 57 57 0 0 1-.078-2.906v-2.985q-.002-1.434.078-2.593.078-1.154.079-2.594-.001-1.357-.172-2.469c-.106-.75-.157-1.57-.157-2.469 0-.476.16-1.062.485-1.75q.481-1.044 2.234-1.046 1.185 0 2.188.078.997.08 2.28.078 1.186.001 2.142-.11a17 17 0 0 1 2.156-.125q2.076.001 2.594.875a3.73 3.73 0 0 1 .515 1.922q-.002 1.267-.203 2.235-.187.954-.187 2.218c0 .907.023 1.735.078 2.485.05.742.078 1.562.078 2.469q0 1.517-.047 2.671a89 89 0 0 0-.031 2.657v.25q0 2.238 1.03 2.672 1.03.438 2.798.437 1.418 0 2.015-.281.61-.282 1.172-1.078c.102-.157.18-.602.235-1.344.05-.75.101-1.492.156-2.234q.077-1.126.078-1.36-.001-1.36-.125-2.437a24 24 0 0 1-.11-2.438q-.002-.703.032-1.453.047-.763.047-1.484-.001-1.123-.125-2a15 15 0 0 1-.11-1.907q-.001-1.998 1.11-2.437 1.124-.436 1.844-.438 1.342.001 2.375.125c.695.075 1.5.11 2.406.11q1.107.001 1.937-.11a13 13 0 0 1 1.89-.125c1.165 0 1.958.243 2.376.72q.638.72.719 1.593.093.878.093 1.281-.002 2.22-.203 4.094a39 39 0 0 0-.203 4.187q-.002.643.031 1.157.048.516.047 1.156 0 1.126-.078 2.047a23 23 0 0 0-.078 2.015q-.002 1.924.031 3.438.048 1.517.047 3.422 0 2.313-.078 4.187a97 97 0 0 0-.078 4.188 59 59 0 0 0 .187 4.984 56 56 0 0 1 .204 4.985q0 1.345-.047 2.468a80 80 0 0 0-.032 2.47q-.001 1.19.157 2.187.17 1.004.172 2.28m0 0"/>
  </g>
  <g clip-path="url(#c)" transform="translate(35 80)">
    <path fill="#ff5700" d="M94.197 165.78q0 3.3-1.617 5.695-1.988 2.948-5.606 3.668c-1.824.368-3.058.547-3.703.547h-.675q-2.538.001-4.477-.203-1.279-.136-3.148-.137h-4.489a55 55 0 0 0-3.867.157l-.226.015h-.227q-.903 0-1.64.106-1.636.234-3.442.234c-2.367 0-4.438-.45-6.203-1.347-2.246-1.141-3.856-2.868-4.82-5.176q-1.052-2.5-2.348-5.258l-.094-.2-.078-.202q-.996-2.562-2.086-4.399a67 67 0 0 1-2.992-5.703l-.063-.129-.054-.133a100 100 0 0 1-1.535-3.886c-.317-.856-.758-1.852-1.333-3a92 92 0 0 0-1.734-3.313c.195.356.52.688.961.996q1.085.748 2.39.746 1.454 0 2.743-1.125 1.395-1.219 1.547-2.844-.14 1.477-.14 1.852 0 2.41.081 4.309.09 2.166.09 4.672 0 2.038-.094 3.738-.076 1.347-.078 3.035.002 1.341.133 2.52.206 1.875.207 4.09 0 6.052-4.11 8.874-2.982 2.051-6.308 2.051-3.09 0-5.586-.3-1.741-.207-4.238-.208-2.812 0-5.031.285-3.035.392-6.66.391-5.649 0-8.989-3.93-2.953-3.475-2.953-8.351 0-2.215.207-4.09.167-1.49.332-3.148l6.32.632-6.343-.336q.168-3.153.25-5.714.082-2.522.082-5.641h6.351l-6.351.168a468 468 0 0 0-.418-11.367c-.172-3.496-.262-7.442-.262-11.836s.09-8.418.262-12.078q.246-5.187.246-11.47.002-4.072-.16-7.214a157 157 0 0 1-.176-7.863q0-4.553.176-8.344c.105-2.328.16-4.914.16-7.75q.002-2.331-.207-4.07-.322-2.695-.117-5.98l6.34.394H2.044q0-4.113 2.344-8.555c2.261-4.293 6.593-6.437 12.984-6.437q2.976-.001 5.273.191c1.18.098 2.582.148 4.215.148h.168c4.098.11 7.77.055 11.02-.156q5.374-.351 12.02-.351 5.424 0 11.687 1.011c4.648.754 9.105 2.414 13.363 4.98q6.71 4.049 11.422 12.04l.113.191.098.196q1.22 2.436 1.87 4.39.193.585.673 1.54.908 1.822 1.742 4.53l-6.07 1.868 6.027-2.008q.914 2.736 1.316 7.289c.235 2.633.41 5.27.528 7.902q.176 3.955.176 6.13-.002 1.351-.262 6.347c-.2 3.719-.988 7.91-2.375 12.57-1.485 5.004-4.082 9.754-7.79 14.258l-4.905-4.039 5.285 3.523a18 18 0 0 1-2.235 2.746l-1.61 1.61c-.85.851-1.722 1.535-2.608 2.039.23-.129.421-.266.57-.402q.03-.029.035-.04-.025.03-.066.083l-.22.273-.25.25q.56-.563.766-.973c.278-.554.418-1.109.418-1.656q-.002-.468-.074-.773.019.076.102.304.304.815.996 2.203a186 186 0 0 0 3.441 6.555c1.39 2.528 2.309 4.383 2.754 5.574l-5.949 2.23 5.684-2.839a56 56 0 0 1 1.632 3.555q.546 1.336 1.348 3.093a54 54 0 0 0 2.39 4.555c1.063 1.79 2.044 3.785 2.954 5.988l.082.204.492 1.476q.58 1.74.578 3.957m-12.703 0q0-.181-.012-.258.019.123.082.32l-.422-1.269 6.028-2.012-5.875 2.418q-1.014-2.456-2.133-4.343-1.511-2.55-3.027-5.778a100 100 0 0 1-1.532-3.515 41 41 0 0 0-1.25-2.711l-.148-.297-.117-.313q-.346-.926-1.989-3.914a201 201 0 0 1-3.671-6.996q-2.368-4.73-2.368-7.414 0-2.178.926-4.027.717-1.43 1.613-2.328l4.493 4.492-4.961-3.969q1.436-1.791 3.078-2.734c-.086.05-.156.097-.203.132a1.4 1.4 0 0 0 .136-.124l1.61-1.61q.316-.316.644-.808l.176-.27.207-.246q3.924-4.766 5.422-9.8 1.648-5.545 1.86-9.618c.163-3.11.246-5 .246-5.68q0-1.893-.165-5.562c-.105-2.45-.27-4.895-.488-7.344q-.27-3.07-.715-4.398l-.047-.141q-.52-1.7-.964-2.586-.88-1.757-1.36-3.203-.363-1.094-1.18-2.723l5.68-2.844-5.469 3.227c-2.054-3.48-4.402-6.02-7.042-7.61q-4.282-2.585-8.829-3.32-5.254-.85-9.66-.851-6.23 0-11.187.328-5.456.356-12.188.18l.168-6.352v6.352q-2.974 0-5.27-.192-1.768-.145-4.218-.144-1.615 0-2.293.277.28-.112.543-.617-.874 1.657-.875 2.625v.199l-.012.2c-.09 1.417-.07 2.644.051 3.671q.3 2.497.3 5.586 0 4.553-.175 8.34-.164 3.496-.164 7.754 0 4.072.164 7.21.176 3.468.176 7.868.001 6.585-.262 12.074a244 244 0 0 0-.246 11.473q0 6.276.246 11.199.259 5.156.43 11.672v.164q0 3.324-.086 6.05a288 288 0 0 1-.262 5.973l-.008.153-.011.148c-.118 1.153-.23 2.246-.348 3.285a25 25 0 0 0-.129 2.688c0 .148.004.242.02.285a.5.5 0 0 0-.094-.164 1.8 1.8 0 0 0-.684-.496 1 1 0 0 0-.176-.059q.053.012.168.012 2.812-.001 5.032-.29c2.023-.257 4.242-.39 6.66-.39q3.258.001 5.754.301 1.739.206 4.07.207-.615 0-.89.188-.977.673-1.337 1.644-.063.165-.074.254.012-.1.012-.305c0-1.007-.043-1.906-.129-2.687a35 35 0 0 1-.207-3.922q0-2.04.094-3.738.075-1.348.074-3.035 0-2.24-.078-4.141c-.063-1.445-.09-3.055-.09-4.84q0-.978.195-3.059.329-3.403 2.735-5.511c1.539-1.344 3.41-2.016 5.625-2.016q2.662.001 4.843 1.508 1.77 1.223 2.91 3.285a98 98 0 0 1 1.993 3.8q1.177 2.345 1.89 4.286.548 1.486 1.34 3.395l-5.863 2.445 5.75-2.707q1.224 2.609 2.426 4.633c1.082 1.824 2.082 3.918 2.996 6.273l-5.918 2.305 5.746-2.707a152 152 0 0 1 2.566 5.754 2.38 2.38 0 0 0-1.136-1.239 2 2 0 0 0-.176-.074h.004q.223.042.617.043.904 0 1.644-.105a24 24 0 0 1 3.438-.235v6.356l-.453-6.34a69 69 0 0 1 4.773-.184h4.489q2.536 0 4.476.203 1.278.136 3.149.137h.675q-.34-.001-.57.028.084-.007.273-.043.535-.094 1.508-.286-1.499.3-2.43 1.676-.557.833-.558 1.418M47.951 89.89q0-1.376-.55-3.458a5.46 5.46 0 0 0-1.243-2.324q.03.04.043.043-.277-.105-.875-.105h-.676V77.69l1.043 6.266c-.285.05-.508.101-.668.164l-.039.012a1 1 0 0 0 .137-.086l-3.691-5.168 4.18 4.781q-.19.166-.263.266.047-.071.118-.23a8 8 0 0 0-.223.589q.166-.531.168-1.34 0 .41-.188 2.86a99 99 0 0 0-.238 4.699l-.172 5.023a504 504 0 0 0-.082 2.156q0 1.138.633 2a.4.4 0 0 0-.164-.12q.147.067.633.066.639.002.773-.055.146-.053.18-.078-.164.1-.363.3l.187-.187.203-.172q.394-.328.621-1.8.516-3.33.516-7.746m12.707 0q0 5.402-.668 9.699-.96 6.153-4.969 9.547l-4.105-4.848 4.492 4.492q-1.599 1.6-4.082 2.59-2.404.966-5.492.965-6.945.001-10.715-5.137-3.09-4.218-3.09-9.516 0-.292.086-2.59l.168-4.972q.094-2.943.27-5.293c.058-.723.097-1.273.125-1.66q.021-.27.03-.41v-.059q-.002.105-.003.246 0-1.565.96-3.969c.72-1.793 1.911-3.418 3.583-4.878l.234-.207.254-.184q2.386-1.7 5.867-2.281l.52-.086h1.203q6.346 0 10.18 4.168 3.014 3.275 4.176 7.675.977 3.677.976 6.707m0 0"/>
    <path fill="#fff" d="M87.85 165.784c0 1.805-.711 2.844-2.126 3.125q-2.11.422-2.453.422H82.6c-1.468 0-2.742-.05-3.812-.156q-1.61-.172-3.813-.172h-4.5q-1.939 0-4.312.172c-.906 0-1.758.058-2.547.172q-1.172.157-2.531.156-4.066 0-5.172-2.625-1.094-2.624-2.453-5.5-1.188-3.045-2.547-5.328a66 66 0 0 1-2.703-5.172 94 94 0 0 1-1.438-3.64q-.596-1.607-1.609-3.657a86 86 0 0 0-1.875-3.547q-.845-1.53-2.188-1.531-1.876 0-2.046 1.781-.158 1.784-.157 2.453-.002 2.55.078 4.578.078 2.034.079 4.407a68 68 0 0 1-.079 3.39 64 64 0 0 0-.078 3.39q-.001 1.69.157 3.22.17 1.516.171 3.375 0 2.718-1.359 3.656-1.346.924-2.703.922-2.707.001-4.828-.25c-1.406-.164-3.074-.25-5-.25-2.149 0-4.094.117-5.844.343q-2.626.33-5.844.329-2.704 0-4.156-1.688-1.438-1.702-1.437-4.234c0-1.25.054-2.38.171-3.391q.17-1.53.344-3.219.17-3.217.25-5.843.094-2.624.094-5.844-.175-6.436-.438-11.516-.25-5.091-.25-11.531 0-6.434.25-11.766.265-5.342.266-11.781 0-4.231-.172-7.531-.174-3.31-.172-7.547c0-2.938.055-5.617.172-8.047q.172-3.64.172-8.047-.001-2.702-.266-4.812c-.167-1.414-.195-3.032-.078-4.844 0-1.695.536-3.563 1.61-5.594q1.607-3.047 7.375-3.047 2.7.001 4.734.172 2.03.174 4.75.172 6.436.175 11.594-.172c3.445-.226 7.316-.344 11.61-.344q4.919 0 10.671.938 5.764.939 11.094 4.156 5.343 3.222 9.234 9.813 1.015 2.05 1.531 3.562c.22.68.551 1.469 1 2.375q.686 1.36 1.375 3.563.671 2.034 1 5.843.34 3.816.516 7.625.17 3.798.172 5.844-.001 1.172-.266 6-.251 4.828-2.109 11.11-1.863 6.268-6.61 12.015-.675 1.02-1.437 1.781l-1.61 1.61q-.672.69-1.265 1.031-.597.329-1.266 1.172-.174.174-.437.687-.251.504-.25 1.172 0 1.19 1.687 4.578a198 198 0 0 0 3.563 6.782q1.874 3.392 2.375 4.734a53 53 0 0 1 1.437 3.14q.593 1.442 1.438 3.298a60 60 0 0 0 2.719 5.171q1.358 2.285 2.547 5.172.153.504.406 1.266.265.769.265 1.953m-33.547-75.89c0-1.47-.258-3.16-.766-5.079q-.75-2.889-2.703-5c-1.305-1.414-3.137-2.125-5.5-2.125h-.688q-2.034.344-3.218 1.188-1.36 1.189-1.875 2.453-.502 1.268-.5 1.61-.001.173-.172 2.374a133 133 0 0 0-.25 5q-.08 2.8-.172 5c-.055 1.461-.078 2.246-.078 2.36 0 2.148.617 4.07 1.86 5.765q1.873 2.548 5.593 2.547c1.238 0 2.281-.164 3.125-.5.851-.344 1.504-.742 1.953-1.203 1.469-1.238 2.398-3.129 2.797-5.672q.593-3.808.594-8.719m0 0"/>
  </g>
</svg>